<svg xmlns="http://www.w3.org/2000/svg" version="1.1" xmlns:xlink="http://www.w3.org/1999/xlink" width="500" height="500"><svg width="500" height="500" viewBox="0 0 500 500" fill="none" xmlns="http://www.w3.org/2000/svg">
<path d="M161.418 133.191V129.578H231.828V133.191H227.531C223.625 133.191 220.5 133.875 218.156 135.242C216.529 136.154 215.227 137.716 214.25 139.93C213.534 141.492 213.176 145.594 213.176 152.234V217.078C213.176 229.773 211.906 239.018 209.367 244.812C206.828 250.542 202.303 255.359 195.793 259.266C189.348 263.107 181.568 265.027 172.453 265.027C161.32 265.027 152.303 262.098 145.402 256.238C138.566 250.379 135.148 243.901 135.148 236.805C135.148 232.247 136.548 228.569 139.348 225.77C142.147 222.905 145.565 221.473 149.602 221.473C153.573 221.473 156.893 222.742 159.562 225.281C162.297 227.82 163.664 230.945 163.664 234.656C163.664 236.479 163.436 238.074 162.98 239.441C162.72 240.092 161.678 241.753 159.855 244.422C158.098 247.026 157.219 248.882 157.219 249.988C157.219 251.681 158.065 253.146 159.758 254.383C162.232 256.206 165.454 257.117 169.426 257.117C172.225 257.117 174.536 256.401 176.359 254.969C178.182 253.536 179.452 251.323 180.168 248.328C180.949 245.268 181.34 236.837 181.34 223.035V152.234C181.34 145.464 180.949 141.232 180.168 139.539C179.452 137.846 177.987 136.382 175.773 135.145C173.625 133.842 170.695 133.191 166.984 133.191H161.418ZM287.98 137.195V191.59H291.789C297.648 191.59 302.434 190.711 306.145 188.953C309.855 187.195 312.98 184.233 315.52 180.066C318.124 175.9 319.816 170.268 320.598 163.172H324.016V229.676H320.598C319.361 217.111 315.975 208.842 310.441 204.871C304.973 200.835 298.755 198.816 291.789 198.816H287.98V239.344C287.98 246.115 288.339 250.346 289.055 252.039C289.836 253.732 291.301 255.229 293.449 256.531C295.663 257.768 298.625 258.387 302.336 258.387H306.73V262H237.492V258.387H241.887C245.728 258.387 248.82 257.703 251.164 256.336C252.857 255.424 254.159 253.862 255.07 251.648C255.786 250.086 256.145 245.984 256.145 239.344V152.234C256.145 145.464 255.786 141.232 255.07 139.539C254.354 137.846 252.889 136.382 250.676 135.145C248.527 133.842 245.598 133.191 241.887 133.191H237.492V129.578H349.211V167.566H345.207C344.296 158.647 341.952 152.039 338.176 147.742C334.465 143.445 329.061 140.418 321.965 138.66C318.059 137.684 310.832 137.195 300.285 137.195H287.98ZM359.953 129.578H428.312V133.191H424.895C419.751 133.191 416.203 133.745 414.25 134.852C412.362 135.893 410.995 137.358 410.148 139.246C409.367 141.134 408.977 145.854 408.977 153.406V218.25C408.977 230.099 409.855 237.944 411.613 241.785C413.436 245.626 416.398 248.816 420.5 251.355C424.602 253.895 429.777 255.164 436.027 255.164C443.189 255.164 449.276 253.569 454.289 250.379C459.367 247.124 463.143 242.664 465.617 237C468.156 231.336 469.426 221.473 469.426 207.41V153.406C469.426 147.482 468.807 143.25 467.57 140.711C466.333 138.172 464.771 136.414 462.883 135.438C459.953 133.94 455.819 133.191 450.48 133.191V129.578H496.281V133.191H493.547C489.836 133.191 486.743 133.94 484.27 135.438C481.796 136.935 480.005 139.181 478.898 142.176C478.052 144.259 477.629 148.003 477.629 153.406V203.699C477.629 219.259 476.587 230.49 474.504 237.391C472.486 244.292 467.505 250.639 459.562 256.434C451.62 262.228 440.78 265.125 427.043 265.125C415.585 265.125 406.73 263.595 400.48 260.535C391.952 256.368 385.93 251.03 382.414 244.52C378.898 238.009 377.141 229.253 377.141 218.25V153.406C377.141 145.789 376.717 141.069 375.871 139.246C375.025 137.358 373.56 135.861 371.477 134.754C369.393 133.647 365.552 133.126 359.953 133.191V129.578Z" fill="black"></path>
<rect width="500" height="500" fill="white"></rect>
<path d="M94.418 185.191V181.578H164.828V185.191H160.531C156.625 185.191 153.5 185.875 151.156 187.242C149.529 188.154 148.227 189.716 147.25 191.93C146.534 193.492 146.176 197.594 146.176 204.234V269.078C146.176 281.773 144.906 291.018 142.367 296.812C139.828 302.542 135.303 307.359 128.793 311.266C122.348 315.107 114.568 317.027 105.453 317.027C94.3203 317.027 85.3034 314.098 78.4023 308.238C71.5664 302.379 68.1484 295.901 68.1484 288.805C68.1484 284.247 69.5482 280.569 72.3477 277.77C75.1471 274.905 78.5651 273.473 82.6016 273.473C86.5729 273.473 89.8932 274.742 92.5625 277.281C95.2969 279.82 96.6641 282.945 96.6641 286.656C96.6641 288.479 96.4362 290.074 95.9805 291.441C95.7201 292.092 94.6784 293.753 92.8555 296.422C91.0977 299.026 90.2188 300.882 90.2188 301.988C90.2188 303.681 91.0651 305.146 92.7578 306.383C95.2318 308.206 98.4544 309.117 102.426 309.117C105.225 309.117 107.536 308.401 109.359 306.969C111.182 305.536 112.452 303.323 113.168 300.328C113.949 297.268 114.34 288.837 114.34 275.035V204.234C114.34 197.464 113.949 193.232 113.168 191.539C112.452 189.846 110.987 188.382 108.773 187.145C106.625 185.842 103.695 185.191 99.9844 185.191H94.418ZM220.98 189.195V243.59H224.789C230.648 243.59 235.434 242.711 239.145 240.953C242.855 239.195 245.98 236.233 248.52 232.066C251.124 227.9 252.816 222.268 253.598 215.172H257.016V281.676H253.598C252.361 269.111 248.975 260.842 243.441 256.871C237.973 252.835 231.755 250.816 224.789 250.816H220.98V291.344C220.98 298.115 221.339 302.346 222.055 304.039C222.836 305.732 224.301 307.229 226.449 308.531C228.663 309.768 231.625 310.387 235.336 310.387H239.73V314H170.492V310.387H174.887C178.728 310.387 181.82 309.703 184.164 308.336C185.857 307.424 187.159 305.862 188.07 303.648C188.786 302.086 189.145 297.984 189.145 291.344V204.234C189.145 197.464 188.786 193.232 188.07 191.539C187.354 189.846 185.889 188.382 183.676 187.145C181.527 185.842 178.598 185.191 174.887 185.191H170.492V181.578H282.211V219.566H278.207C277.296 210.647 274.952 204.039 271.176 199.742C267.465 195.445 262.061 192.418 254.965 190.66C251.059 189.684 243.832 189.195 233.285 189.195H220.98ZM292.953 181.578H361.312V185.191H357.895C352.751 185.191 349.203 185.745 347.25 186.852C345.362 187.893 343.995 189.358 343.148 191.246C342.367 193.134 341.977 197.854 341.977 205.406V270.25C341.977 282.099 342.855 289.944 344.613 293.785C346.436 297.626 349.398 300.816 353.5 303.355C357.602 305.895 362.777 307.164 369.027 307.164C376.189 307.164 382.276 305.569 387.289 302.379C392.367 299.124 396.143 294.664 398.617 289C401.156 283.336 402.426 273.473 402.426 259.41V205.406C402.426 199.482 401.807 195.25 400.57 192.711C399.333 190.172 397.771 188.414 395.883 187.438C392.953 185.94 388.819 185.191 383.48 185.191V181.578H429.281V185.191H426.547C422.836 185.191 419.743 185.94 417.27 187.438C414.796 188.935 413.005 191.181 411.898 194.176C411.052 196.259 410.629 200.003 410.629 205.406V255.699C410.629 271.259 409.587 282.49 407.504 289.391C405.486 296.292 400.505 302.639 392.562 308.434C384.62 314.228 373.78 317.125 360.043 317.125C348.585 317.125 339.73 315.595 333.48 312.535C324.952 308.368 318.93 303.03 315.414 296.52C311.898 290.009 310.141 281.253 310.141 270.25V205.406C310.141 197.789 309.717 193.069 308.871 191.246C308.025 189.358 306.56 187.861 304.477 186.754C302.393 185.647 298.552 185.126 292.953 185.191V181.578Z" fill="black"></path>
</svg><style>@media (prefers-color-scheme: light) { :root { filter: none; } }
@media (prefers-color-scheme: dark) { :root { filter: none; } }
</style></svg>